<?xml version="1.0" encoding="utf-8"?>
<!-- Generator: Adobe Illustrator 17.0.2, SVG Export Plug-In . SVG Version: 6.00 Build 0)  -->
<!DOCTYPE svg PUBLIC "-//W3C//DTD SVG 1.1//EN" "http://www.w3.org/Graphics/SVG/1.1/DTD/svg11.dtd">
<svg version="1.1" xmlns="http://www.w3.org/2000/svg" xmlns:xlink="http://www.w3.org/1999/xlink" x="0px" y="0px" width="198px"
	 height="62px" viewBox="0 0 198 62" enable-background="new 0 0 198 62" xml:space="preserve">
<g id="LogoBlack">
	<g id="Logo">
		<g>
			<g>
				<path fill="#000000" d="M42.758,17.059H0v28.044l19.886-25.495v25.495L42.758,17.059z M88.695,0L39.734,61.695L40.127,62
					L89.088,0.305L88.695,0z M127.842,26.078l-2.985-10.997h-1.007l-2.985,10.997l-2.698-10.997h-1.025l3.201,12.649h0.989
					l3.021-11.015l3.021,11.015h0.989l3.201-12.649h-1.025L127.842,26.078z M139.12,24.656h5.971l1.115,3.074h1.043l-4.712-12.649
					h-0.863l-4.712,12.649h1.043L139.12,24.656z M142.105,16.36l2.68,7.444h-5.359L142.105,16.36z M163.525,18.474
					c0-2.203-1.583-3.393-3.669-3.393h-4.874V27.73h0.971v-5.827h3.525l3.057,5.827h1.133l-3.093-5.845
					C162.374,21.583,163.525,20.375,163.525,18.474z M155.954,21.05v-5.117h3.776c1.655,0,2.823,0.799,2.823,2.558
					s-1.169,2.558-2.823,2.558L155.954,21.05L155.954,21.05z M176.584,15.081h-4.298V27.73h4.298c1.349,0,2.428-0.391,3.201-1.155
					c1.295-1.279,1.241-3.642,1.241-5.348s0.054-3.713-1.241-4.992C179.011,15.471,177.932,15.081,176.584,15.081z M179.101,25.9
					c-0.737,0.764-1.726,0.977-2.751,0.977h-3.093V15.933h3.093c1.025,0,2.014,0.213,2.751,0.977
					c1.007,1.048,0.953,2.896,0.953,4.317C180.054,22.649,180.108,24.852,179.101,25.9z M195.666,24.656l1.115,3.074h1.043
					l-4.712-12.649h-0.863l-4.712,12.649h1.043l1.115-3.074H195.666z M192.681,16.36l2.68,7.444h-5.359L192.681,16.36z
					 M92.802,49.66l-7.391-10.962H84.44v12.649h0.971V40.351l7.391,10.997h0.971v-12.65h-0.971V49.66z M102.857,51.348h7.769v-0.853
					h-6.798v-5.099h5.791v-0.853h-5.791v-4.992h6.798v-0.853h-7.769V51.348z M117.659,39.551h3.812v11.797h0.971V39.551h3.831
					v-0.853h-8.614V39.551z M143.719,49.696l-2.985-10.997h-1.007l-2.985,10.997l-2.698-10.997h-1.025l3.201,12.649h0.989
					l3.021-11.015l3.021,11.015h0.989l3.201-12.649h-1.025L143.719,49.696z M158.792,38.592c-1.223,0-2.356,0.462-3.201,1.297
					c-1.169,1.155-1.187,2.274-1.187,5.134c0,2.843,0.018,3.98,1.187,5.134c0.845,0.835,1.978,1.297,3.201,1.297
					s2.356-0.462,3.201-1.297c1.169-1.155,1.187-2.292,1.187-5.134c0-2.86-0.018-3.98-1.187-5.134
					C161.148,39.054,160.015,38.592,158.792,38.592z M161.22,49.624c-0.647,0.64-1.511,0.977-2.428,0.977
					c-0.917,0-1.78-0.337-2.428-0.977c-0.917-0.906-0.989-1.901-0.989-4.601c0-2.7,0.072-3.695,0.989-4.601
					c0.647-0.64,1.511-0.977,2.428-0.977c0.917,0,1.78,0.338,2.428,0.977c0.917,0.906,0.989,1.901,0.989,4.601
					C162.209,47.724,162.137,48.719,161.22,49.624z M180.302,42.092c0-2.203-1.583-3.393-3.669-3.393h-4.874v12.649h0.971v-5.827
					h3.525l3.057,5.827h1.133l-3.093-5.845C179.151,45.201,180.302,43.993,180.302,42.092z M172.731,44.668v-5.117h3.777
					c1.654,0,2.823,0.799,2.823,2.558s-1.169,2.558-2.823,2.558h-3.777V44.668z M193.378,43.531l3.956-4.832h-1.169l-6.492,7.906
					v-7.906h-0.971v12.649h0.971v-3.429l3.057-3.66l4.118,7.089H198L193.378,43.531z"/>
			</g>
		</g>
	</g>
</g>
</svg>
