<?xml version="1.0" standalone="no"?>
<!DOCTYPE svg PUBLIC "-//W3C//DTD SVG 20010904//EN"
 "http://www.w3.org/TR/2001/REC-SVG-20010904/DTD/svg10.dtd">
<svg version="1.0" xmlns="http://www.w3.org/2000/svg"
 width="500.000000pt" height="500.000000pt" viewBox="0 0 500.000000 500.000000"
 preserveAspectRatio="xMidYMid meet">
<metadata>
Created by potrace 1.14, written by Peter Selinger 2001-2017
</metadata>
<g transform="translate(0.000000,500.000000) scale(0.100000,-0.100000)"
fill="#000000" stroke="none">
<path d="M0 2500 l0 -1641 43 53 c23 29 110 140 192 247 83 106 184 237 226
290 41 53 182 233 313 401 130 168 242 312 249 320 26 32 263 335 282 361 11
15 50 65 86 111 136 172 645 825 688 883 25 33 52 68 61 77 8 9 51 64 95 121
44 58 82 101 85 97 3 -4 5 -673 4 -1485 -1 -1145 2 -1473 11 -1463 7 7 43 51
81 98 38 47 77 94 86 105 9 11 89 110 179 220 89 110 173 214 188 231 42 50
65 77 89 109 13 17 39 48 57 70 36 43 436 534 489 599 17 21 43 53 57 70 27
32 327 399 389 477 19 24 78 95 130 159 52 63 124 151 160 195 35 44 134 166
220 270 86 105 205 251 265 325 60 74 111 137 114 140 4 3 35 41 70 85 36 44
71 88 79 98 14 16 -105 17 -2486 17 l-2502 0 0 -1640z"/>
</g>
</svg>
