<svg  xmlns="http://www.w3.org/2000/svg" width="11" height="10" viewBox="0 0 11 10">
  <path fill="#868a8e" fill-rule="evenodd" d="M9.71477616,3.00795519 C9.99456955,3.25795584 9.99456955,3.50795128 9.71477616,3.75795193 C9.43498277,4.00795779 9.15518938,4.00795779 8.87539599,3.75795193 L6.03083819,1.25795584 L6.03083819,10.8829543 C6.03083819,11.2440675 5.82876817,11.4246212 5.4246212,11.4246212 C5.02047408,11.4246212 4.81840347,11.2440675 4.81840347,10.8829543 L4.81840347,1.25795584 L1.97384451,3.79961958 C1.72513895,4.04962023 1.44534905,4.03573275 1.13446673,3.75795193 C0.854672695,3.50795128 0.854672695,3.25795584 1.13446673,3.00795519 L5.0049322,-0.408713432 C5.06710845,-0.464268554 5.12928411,-0.505936196 5.19146035,-0.533711155 C5.2536366,-0.561491318 5.33135646,-0.575378798 5.4246212,-0.575378798 C5.58006202,-0.575378798 5.71995697,-0.519823676 5.84431004,-0.408713432 L9.71477616,3.00795519 Z" transform="rotate(45 5.425 5.425)"/>
</svg>
